<svg width="45" height="45" viewBox="0 0 45 45" fill="none" xmlns="http://www.w3.org/2000/svg">
<path d="M34 22.5C34 22.5 28.9929 24.334 26.6634 26.6634C24.334 28.9929 22.5 34 22.5 34C22.5 34 20.666 28.9929 18.3366 26.6634C16.0071 24.334 11 22.5 11 22.5C11 22.5 16.0071 20.666 18.3366 18.3366C20.666 16.0071 22.5 11 22.5 11C22.5 11 24.334 16.0071 26.6634 18.3366C28.9929 20.666 34 22.5 34 22.5Z" fill="url(#paint0_linear_0_1)"/>
<path d="M23.4389 5.65591L22.5 3.09248L21.5611 5.65591L23.4389 5.65591ZM23.4389 5.65591L23.439 5.65606L23.4391 5.65642L23.4402 5.65936L23.4452 5.67288L23.4664 5.72959C23.4854 5.78025 23.5142 5.85614 23.5523 5.95458C23.6284 6.1515 23.7416 6.43841 23.888 6.7939C24.1811 7.50554 24.6061 8.48859 25.1329 9.57283C26.2009 11.7708 27.6348 14.2733 29.1807 15.8193C30.7267 17.3652 33.2292 18.7991 35.4272 19.8671C36.5114 20.3939 37.4945 20.8189 38.2061 21.112C38.5616 21.2584 38.8485 21.3716 39.0454 21.4477C39.1439 21.4858 39.2198 21.5146 39.2704 21.5336L39.3271 21.5548L39.3406 21.5598L39.3436 21.5609L39.3439 21.561L23.4389 5.65591ZM5.65606 21.561L5.65642 21.5609L5.65936 21.5598L5.67288 21.5548L5.72959 21.5336C5.78025 21.5146 5.85614 21.4858 5.95458 21.4477C6.1515 21.3716 6.43841 21.2584 6.7939 21.112C7.50554 20.8189 8.48859 20.3939 9.57283 19.8671C11.7708 18.7991 14.2733 17.3652 15.8193 15.8193C17.3652 14.2733 18.7991 11.7708 19.8671 9.57283C20.3939 8.48859 20.8189 7.50554 21.112 6.7939C21.2584 6.43841 21.3716 6.1515 21.4477 5.95458C21.4858 5.85614 21.5146 5.78025 21.5336 5.72959L21.5548 5.67288L21.5598 5.65936L21.5609 5.65642L21.561 5.65606L5.65606 21.561ZM5.65606 21.561L5.65591 21.5611L5.65606 21.561ZM41.9075 22.5L39.3441 21.5611L41.9075 22.5ZM5.65591 23.4389L5.65606 23.439L5.65642 23.4391L5.65936 23.4402L5.67288 23.4452L5.72959 23.4664C5.78025 23.4854 5.85614 23.5142 5.95458 23.5523C6.1515 23.6284 6.43841 23.7416 6.7939 23.888C7.50554 24.1811 8.48859 24.6061 9.57283 25.1329C11.7708 26.2009 14.2733 27.6348 15.8193 29.1807C17.3652 30.7267 18.7991 33.2292 19.8671 35.4272C20.3939 36.5114 20.8189 37.4945 21.112 38.2061C21.2584 38.5616 21.3716 38.8485 21.4477 39.0454C21.4858 39.1439 21.5146 39.2198 21.5336 39.2704L21.5548 39.3271L21.5598 39.3406L21.5609 39.3436L21.561 39.3439L21.5611 39.3441L5.65591 23.4389ZM23.4389 39.3441L23.439 39.3439L23.4391 39.3436L23.4402 39.3406L23.4452 39.3271L23.4664 39.2704C23.4854 39.2198 23.5142 39.1439 23.5523 39.0454C23.6284 38.8485 23.7416 38.5616 23.888 38.2061C24.1811 37.4945 24.6061 36.5114 25.1329 35.4272C26.2009 33.2292 27.6348 30.7267 29.1807 29.1807C30.7267 27.6348 33.2292 26.2009 35.4272 25.1329C36.5114 24.6061 37.4945 24.1811 38.2061 23.888C38.5616 23.7416 38.8485 23.6284 39.0454 23.5523C39.1439 23.5142 39.2198 23.4854 39.2704 23.4664L39.3271 23.4452L39.3406 23.4402L39.3436 23.4391L39.3439 23.439L39.3441 23.4389L23.4389 39.3441ZM21.9593 37.6385C21.0227 35.3909 18.9635 30.9108 16.5264 28.4736C14.0892 26.0365 9.60909 23.9773 7.36146 23.0407C7.07953 23.1554 6.84703 23.2469 6.67586 23.3131C6.57134 23.3535 6.48962 23.3845 6.43341 23.4057L6.36855 23.4299L6.35108 23.4364L6.3462 23.4382L6.34474 23.4387L6.34426 23.4389L21.9593 37.6385ZM28.4736 28.4736C26.0365 30.9108 23.9773 35.3909 23.0407 37.6385L39 22.5C38.6561 23.439 38.6559 23.4389 38.6557 23.4389L38.6553 23.4387L38.6538 23.4382L38.6489 23.4364L38.6315 23.4299L38.5666 23.4057C38.5104 23.3845 38.4287 23.3535 38.3241 23.3131C38.153 23.2469 37.9205 23.1554 37.6385 23.0407C35.3909 23.9773 30.9108 26.0365 28.4736 28.4736Z" stroke="url(#paint1_linear_0_1)" stroke-opacity="0.44" stroke-width="2"/>
<defs>
<linearGradient id="paint0_linear_0_1" x1="34" y1="11" x2="11" y2="34" gradientUnits="userSpaceOnUse">
<stop stop-color="#ECF7FF"/>
<stop offset="1" stop-color="#D4ECFF"/>
</linearGradient>
<linearGradient id="paint1_linear_0_1" x1="46.5" y1="29" x2="19" y2="29" gradientUnits="userSpaceOnUse">
<stop stop-color="#8EA0AF"/>
<stop offset="1" stop-color="#D5ECFF" stop-opacity="0"/>
</linearGradient>
</defs>
</svg>
