<svg width="114" height="103" viewBox="0 0 114 103" fill="none" xmlns="http://www.w3.org/2000/svg">
<mask id="mask0_0_1" style="mask-type:alpha" maskUnits="userSpaceOnUse" x="0" y="61" width="115" height="44">
<rect y="61" width="115" height="44" fill="#F4FAFF" fill-opacity="0.22"/>
</mask>
<g mask="url(#mask0_0_1)">
<path d="M33.599 40.6023C33.5564 47.5457 33.3484 54.1182 31.9566 60.8668M31.9566 60.8668C31.8949 61.1655 31.831 61.4647 31.7647 61.7642C31.1299 64.6294 28.9931 73.1222 29.2369 70.1976C29.4474 67.6708 30.3528 63.6169 31.9566 60.8668ZM31.9566 60.8668C32.4404 60.037 32.9879 59.326 33.599 58.8113C34.932 57.6888 36.3705 59.0284 37.6927 58.5876C38.5027 58.3176 39.2064 57.7204 39.8212 56.9316M39.8212 56.9316C41.7073 54.5116 42.7554 50.289 43.4641 48.1857C43.8439 47.0583 44.3847 45.2954 44.9496 43.4213M39.8212 56.9316C41.2685 53.1652 42.703 49.3938 44.1128 45.6131C44.3835 44.8871 44.6661 44.1564 44.9496 43.4213M39.8212 56.9316C36.3196 66.0437 32.7428 75.1271 29.2592 84.2459C28.257 86.8694 25.074 94.665 26.2617 92.12C27.1008 90.3218 28.1767 88.6231 29.1697 86.9079M44.9496 43.4213C46.4341 38.4969 48.0854 32.805 47.4235 35.8599C46.8683 38.4227 45.9038 40.947 44.9496 43.4213ZM44.068 60.3326C44.9001 60.2752 45.9107 60.085 46.9472 59.7664M46.9472 59.7664C49.7277 58.9119 52.6947 57.1336 52.9041 54.5164C53.2826 49.7848 48.5855 56.0043 47.8709 57.4692C47.5403 58.1469 47.1998 58.9478 46.9472 59.7664ZM46.9472 59.7664C46.2006 62.1868 46.2234 64.7618 49.5486 64.7618C52.9775 64.7618 55.2186 62.767 57.7583 60.7352M69.838 40.6023C68.1215 46.1524 66.0485 51.4817 64.0757 56.9094M64.0757 56.9094C63.8701 57.4751 63.6655 58.0418 63.4626 58.61C63.0679 59.7153 61.9054 62.5423 62.8139 63.7103C63.3649 64.4188 64.2648 63.0817 64.4245 62.659C64.9806 61.1869 64.849 58.5353 64.0757 56.9094ZM64.0757 56.9094C63.9425 56.6293 63.7902 56.3797 63.6192 56.1717C61.8549 54.0269 59.0916 55.2114 57.2438 56.552C54.9239 58.2351 54.4191 60.1473 54.5594 62.8827C54.6604 64.8526 55.8464 65.567 57.7583 65.567C59.9363 65.567 60.8662 64.2585 62.1875 62.7484M67.0194 55.5005C67.0194 56.031 66.4178 61.8659 67.1984 62.2562C69.0897 63.2019 71.0858 60.3017 71.7618 59.1244C72.0953 58.5437 72.4132 57.929 72.6555 57.2896M72.6555 57.2896C72.8478 56.7819 72.9925 56.2585 73.0593 55.7242C73.1446 55.0412 72.897 56.1694 72.6555 57.2896ZM72.6555 57.2896C72.5365 57.8414 72.419 58.3912 72.3434 58.7217C72.0343 60.074 70.8254 63.939 72.925 64.3589C76.7292 65.1198 79.6021 61.5778 81.3361 58.7217C82.9664 56.0365 81.5389 59.0532 81.5151 60.6008C81.4935 62.0007 81.1074 64.639 83.3046 63.7773C84.4879 63.3133 85.0245 62.172 85.5416 61.1377M87.555 55.0981C87.5182 55.9576 86.869 63.1461 89.2783 63.0029M89.2783 63.0029C89.4978 62.9899 89.7426 62.916 90.0156 62.771C93.2127 61.0725 93.856 54.7309 92.9461 51.6979C91.8486 48.0396 90.8038 53.6721 90.6867 54.4718C90.2715 57.3094 89.8113 60.16 89.2783 63.0029ZM89.2783 63.0029C88.5629 66.8187 87.7162 70.6208 86.6704 74.3591M86.6704 74.3591C85.6324 78.0693 84.3984 81.7168 82.902 85.2527C80.0807 91.9194 74.4454 101.958 66.326 102.455C60.9981 102.781 55.5342 98.6042 55.6555 92.9032C55.8095 85.6652 66.7413 81.4782 72.254 79.4365C77.0278 77.6684 81.8494 76.0137 86.6704 74.3591ZM86.6704 74.3591C90.4632 73.0574 94.2556 71.7557 98.024 70.3991" stroke="#D2E7FB" stroke-linecap="round"/>
</g>
<mask id="mask1_0_1" style="mask-type:alpha" maskUnits="userSpaceOnUse" x="0" y="-17" width="115" height="44">
<rect y="-17" width="115" height="44" fill="#F4FAFF" fill-opacity="0.22"/>
</mask>
<g mask="url(#mask1_0_1)">
<path d="M33.599 6.60228C33.5564 13.5457 33.3484 20.1182 31.9566 26.8668M31.9566 26.8668C31.8949 27.1655 31.831 27.4647 31.7647 27.7642C31.1299 30.6294 28.9931 39.1222 29.2369 36.1976C29.4474 33.6708 30.3528 29.6169 31.9566 26.8668ZM31.9566 26.8668C32.4404 26.037 32.9879 25.326 33.599 24.8113C34.932 23.6888 36.3705 25.0284 37.6927 24.5876C38.5027 24.3176 39.2064 23.7204 39.8212 22.9316M39.8212 22.9316C41.7073 20.5116 42.7554 16.289 43.4641 14.1857C43.8439 13.0583 44.3847 11.2954 44.9496 9.42127M39.8212 22.9316C41.2685 19.1652 42.703 15.3938 44.1128 11.6131C44.3835 10.8871 44.6661 10.1564 44.9496 9.42127M39.8212 22.9316C36.3196 32.0437 32.7428 41.1271 29.2592 50.2459C28.257 52.8694 25.074 60.665 26.2617 58.12C27.1008 56.3218 28.1767 54.6231 29.1697 52.9079M44.9496 9.42127C46.4341 4.49688 48.0854 -1.19502 47.4235 1.85987C46.8683 4.42266 45.9038 6.94704 44.9496 9.42127ZM44.068 26.3326C44.9001 26.2752 45.9107 26.085 46.9472 25.7664M46.9472 25.7664C49.7277 24.9119 52.6947 23.1336 52.9041 20.5164C53.2826 15.7848 48.5855 22.0043 47.8709 23.4692C47.5403 24.1469 47.1998 24.9478 46.9472 25.7664ZM46.9472 25.7664C46.2006 28.1868 46.2234 30.7618 49.5486 30.7618C52.9775 30.7618 55.2186 28.767 57.7583 26.7352M69.838 6.60229C68.1215 12.1524 66.0485 17.4817 64.0757 22.9094M64.0757 22.9094C63.8701 23.4751 63.6655 24.0418 63.4626 24.61C63.0679 25.7153 61.9054 28.5423 62.8139 29.7103C63.3649 30.4188 64.2648 29.0817 64.4245 28.659C64.9806 27.1869 64.849 24.5353 64.0757 22.9094ZM64.0757 22.9094C63.9425 22.6293 63.7902 22.3797 63.6192 22.1717C61.8549 20.0269 59.0916 21.2114 57.2438 22.552C54.9239 24.2351 54.4191 26.1473 54.5594 28.8827C54.6604 30.8526 55.8464 31.567 57.7583 31.567C59.9363 31.567 60.8662 30.2585 62.1875 28.7484M67.0194 21.5005C67.0194 22.031 66.4178 27.8659 67.1984 28.2562C69.0897 29.2019 71.0858 26.3017 71.7618 25.1244C72.0953 24.5437 72.4132 23.929 72.6555 23.2896M72.6555 23.2896C72.8478 22.7819 72.9925 22.2585 73.0593 21.7242C73.1446 21.0412 72.897 22.1694 72.6555 23.2896ZM72.6555 23.2896C72.5365 23.8414 72.419 24.3912 72.3434 24.7217C72.0343 26.074 70.8254 29.939 72.925 30.3589C76.7292 31.1198 79.6021 27.5778 81.3361 24.7217C82.9664 22.0365 81.5389 25.0532 81.5151 26.6008C81.4935 28.0007 81.1074 30.639 83.3046 29.7773C84.4879 29.3133 85.0245 28.172 85.5416 27.1377M87.555 21.0981C87.5182 21.9576 86.869 29.1461 89.2783 29.0029M89.2783 29.0029C89.4978 28.9899 89.7426 28.916 90.0156 28.771C93.2127 27.0725 93.856 20.7309 92.9461 17.6979C91.8486 14.0396 90.8038 19.6721 90.6867 20.4718C90.2715 23.3094 89.8113 26.16 89.2783 29.0029ZM89.2783 29.0029C88.5629 32.8187 87.7162 36.6208 86.6704 40.3591M86.6704 40.3591C85.6324 44.0693 84.3984 47.7168 82.902 51.2527C80.0807 57.9194 74.4454 67.958 66.326 68.4551C60.9981 68.7813 55.5342 64.6042 55.6555 58.9032C55.8095 51.6652 66.7413 47.4782 72.254 45.4365C77.0278 43.6684 81.8494 42.0137 86.6704 40.3591ZM86.6704 40.3591C90.4632 39.0574 94.2556 37.7557 98.024 36.3991" stroke="#D2E7FB" stroke-linecap="round"/>
</g>
<path d="M3.125 47H0.880682V39.7273H3.22443C3.92992 39.7273 4.53362 39.8729 5.03551 40.1641C5.53741 40.4529 5.92211 40.8684 6.18963 41.4105C6.45715 41.9503 6.59091 42.5966 6.59091 43.3494C6.59091 44.107 6.45597 44.7592 6.18608 45.3061C5.91619 45.8506 5.5232 46.2696 5.0071 46.5632C4.491 46.8544 3.86364 47 3.125 47ZM1.76136 46.2188H3.06818C3.66951 46.2188 4.16785 46.1027 4.56321 45.8707C4.95857 45.6387 5.25331 45.3085 5.44744 44.88C5.64157 44.4515 5.73864 43.9413 5.73864 43.3494C5.73864 42.7623 5.64276 42.2569 5.45099 41.8331C5.25923 41.407 4.97277 41.0803 4.59162 40.853C4.21046 40.6233 3.7358 40.5085 3.16761 40.5085H1.76136V46.2188ZM11.4415 47.1136C10.9159 47.1136 10.4625 46.9976 10.0814 46.7656C9.7026 46.5312 9.41023 46.2045 9.20426 45.7855C9.00066 45.3641 8.89886 44.8741 8.89886 44.3153C8.89886 43.7566 9.00066 43.2642 9.20426 42.8381C9.41023 42.4096 9.69669 42.0758 10.0636 41.8366C10.433 41.5952 10.8638 41.4744 11.3562 41.4744C11.6403 41.4744 11.9209 41.5218 12.1979 41.6165C12.4749 41.7112 12.727 41.8651 12.9543 42.0781C13.1815 42.2888 13.3626 42.5682 13.4976 42.9162C13.6325 43.2642 13.7 43.6927 13.7 44.2017V44.5568H9.49545V43.8324H12.8477C12.8477 43.5246 12.7862 43.25 12.6631 43.0085C12.5423 42.767 12.3695 42.5765 12.1446 42.4368C11.9221 42.2971 11.6593 42.2273 11.3562 42.2273C11.0224 42.2273 10.7336 42.3101 10.4898 42.4759C10.2483 42.6392 10.0625 42.8523 9.93224 43.1151C9.80204 43.3778 9.73693 43.6596 9.73693 43.9602V44.4432C9.73693 44.8551 9.80795 45.2043 9.95 45.4908C10.0944 45.7749 10.2945 45.9915 10.5501 46.1406C10.8058 46.2874 11.1029 46.3608 11.4415 46.3608C11.6616 46.3608 11.8605 46.33 12.0381 46.2685C12.218 46.2045 12.3731 46.1098 12.5033 45.9844C12.6335 45.8565 12.7341 45.6979 12.8051 45.5085L13.6148 45.7358C13.5295 46.0104 13.3863 46.2519 13.1851 46.4602C12.9839 46.6662 12.7353 46.8272 12.4393 46.9432C12.1434 47.0568 11.8108 47.1136 11.4415 47.1136ZM20.0385 42.767L19.2857 42.9801C19.2383 42.8546 19.1685 42.7327 19.0761 42.6143C18.9862 42.4936 18.8631 42.3942 18.7068 42.3161C18.5506 42.2379 18.3505 42.1989 18.1067 42.1989C17.7729 42.1989 17.4947 42.2758 17.2722 42.4297C17.052 42.5812 16.9419 42.7741 16.9419 43.0085C16.9419 43.2169 17.0177 43.3814 17.1692 43.5021C17.3207 43.6229 17.5574 43.7235 17.8794 43.804L18.6891 44.0028C19.1768 44.1212 19.5402 44.3023 19.7793 44.5462C20.0184 44.7876 20.1379 45.099 20.1379 45.4801C20.1379 45.7926 20.048 46.072 19.868 46.3182C19.6905 46.5644 19.4419 46.7585 19.1223 46.9006C18.8027 47.0426 18.431 47.1136 18.0072 47.1136C17.4509 47.1136 16.9904 46.9929 16.6259 46.7514C16.2613 46.5099 16.0304 46.1572 15.9334 45.6932L16.7288 45.4943C16.8046 45.7879 16.9478 46.008 17.1585 46.1548C17.3716 46.3016 17.6498 46.375 17.993 46.375C18.3837 46.375 18.6938 46.2921 18.9234 46.1264C19.1554 45.9583 19.2714 45.7571 19.2714 45.5227C19.2714 45.3333 19.2052 45.1747 19.0726 45.0469C18.94 44.9167 18.7364 44.8196 18.4618 44.7557L17.5527 44.5426C17.0532 44.4242 16.6862 44.2408 16.4518 43.9922C16.2198 43.7412 16.1038 43.4276 16.1038 43.0511C16.1038 42.7434 16.1902 42.4711 16.3631 42.2344C16.5383 41.9976 16.7762 41.8118 17.0768 41.6768C17.3799 41.5419 17.7232 41.4744 18.1067 41.4744C18.6464 41.4744 19.0702 41.5928 19.378 41.8295C19.6881 42.0663 19.9083 42.3788 20.0385 42.767ZM22.5995 47V41.5455H23.4375V47H22.5995ZM23.0256 40.6364C22.8623 40.6364 22.7214 40.5807 22.603 40.4695C22.487 40.3582 22.429 40.2244 22.429 40.0682C22.429 39.9119 22.487 39.7782 22.603 39.6669C22.7214 39.5556 22.8623 39.5 23.0256 39.5C23.189 39.5 23.3286 39.5556 23.4446 39.6669C23.563 39.7782 23.6222 39.9119 23.6222 40.0682C23.6222 40.2244 23.563 40.3582 23.4446 40.4695C23.3286 40.5807 23.189 40.6364 23.0256 40.6364ZM28.3742 49.1591C27.9694 49.1591 27.6214 49.107 27.3302 49.0028C27.039 48.901 26.7963 48.7661 26.6022 48.598C26.4104 48.4323 26.2577 48.2547 26.1441 48.0653L26.8117 47.5966C26.8875 47.696 26.9834 47.8097 27.0994 47.9375C27.2154 48.0677 27.374 48.1802 27.5752 48.2749C27.7788 48.3719 28.0451 48.4205 28.3742 48.4205C28.8146 48.4205 29.178 48.3139 29.4644 48.1009C29.7509 47.8878 29.8941 47.554 29.8941 47.0994V45.9915H29.8231C29.7615 46.0909 29.6739 46.214 29.5603 46.3608C29.449 46.5052 29.288 46.6342 29.0773 46.7479C28.869 46.8591 28.5873 46.9148 28.2322 46.9148C27.7918 46.9148 27.3965 46.8106 27.0461 46.6023C26.6981 46.3939 26.4223 46.0909 26.2187 45.6932C26.0174 45.2955 25.9168 44.8125 25.9168 44.2443C25.9168 43.6856 26.0151 43.1991 26.2116 42.7848C26.4081 42.3681 26.6815 42.0462 27.0319 41.8189C27.3823 41.5893 27.7871 41.4744 28.2464 41.4744C28.6015 41.4744 28.8832 41.5336 29.0915 41.652C29.3022 41.768 29.4632 41.9006 29.5745 42.0497C29.6881 42.1965 29.7757 42.3172 29.8373 42.4119H29.9225V41.5455H30.7322V47.1562C30.7322 47.625 30.6256 48.0062 30.4126 48.2997C30.2019 48.5956 29.9178 48.8123 29.5603 48.9496C29.2052 49.0893 28.8098 49.1591 28.3742 49.1591ZM28.3458 46.1619C28.682 46.1619 28.9661 46.085 29.1981 45.9311C29.4301 45.7772 29.6065 45.5559 29.7272 45.267C29.8479 44.9782 29.9083 44.6326 29.9083 44.2301C29.9083 43.8371 29.8491 43.4903 29.7308 43.1896C29.6124 42.889 29.4372 42.6534 29.2052 42.483C28.9732 42.3125 28.6867 42.2273 28.3458 42.2273C27.9907 42.2273 27.6948 42.3172 27.458 42.4972C27.2236 42.6771 27.0473 42.9186 26.9289 43.2216C26.8129 43.5246 26.7549 43.8608 26.7549 44.2301C26.7549 44.6089 26.8141 44.9439 26.9325 45.2351C27.0532 45.5239 27.2308 45.7512 27.4651 45.9169C27.7019 46.0803 27.9954 46.1619 28.3458 46.1619ZM34.3043 43.7188V47H33.4663V41.5455H34.2759V42.3977H34.3469C34.4748 42.1207 34.6689 41.8982 34.9293 41.7301C35.1897 41.5597 35.5259 41.4744 35.9379 41.4744C36.3072 41.4744 36.6303 41.5502 36.9073 41.7017C37.1843 41.8509 37.3997 42.0781 37.5536 42.3835C37.7075 42.6866 37.7844 43.0701 37.7844 43.5341V47H36.9464V43.5909C36.9464 43.1624 36.8351 42.8286 36.6126 42.5895C36.39 42.348 36.0846 42.2273 35.6964 42.2273C35.4289 42.2273 35.1897 42.2853 34.979 42.4013C34.7707 42.5173 34.6062 42.6866 34.4854 42.9091C34.3647 43.1316 34.3043 43.4015 34.3043 43.7188ZM42.8028 47.1136C42.2772 47.1136 41.8239 46.9976 41.4427 46.7656C41.0639 46.5312 40.7716 46.2045 40.5656 45.7855C40.362 45.3641 40.2602 44.8741 40.2602 44.3153C40.2602 43.7566 40.362 43.2642 40.5656 42.8381C40.7716 42.4096 41.058 42.0758 41.425 41.8366C41.7943 41.5952 42.2252 41.4744 42.7176 41.4744C43.0017 41.4744 43.2822 41.5218 43.5592 41.6165C43.8362 41.7112 44.0883 41.8651 44.3156 42.0781C44.5429 42.2888 44.724 42.5682 44.8589 42.9162C44.9939 43.2642 45.0613 43.6927 45.0613 44.2017V44.5568H40.8568V43.8324H44.2091C44.2091 43.5246 44.1475 43.25 44.0244 43.0085C43.9037 42.767 43.7308 42.5765 43.5059 42.4368C43.2834 42.2971 43.0206 42.2273 42.7176 42.2273C42.3838 42.2273 42.0949 42.3101 41.8511 42.4759C41.6096 42.6392 41.4238 42.8523 41.2936 43.1151C41.1634 43.3778 41.0983 43.6596 41.0983 43.9602V44.4432C41.0983 44.8551 41.1693 45.2043 41.3113 45.4908C41.4557 45.7749 41.6558 45.9915 41.9115 46.1406C42.1672 46.2874 42.4643 46.3608 42.8028 46.3608C43.023 46.3608 43.2218 46.33 43.3994 46.2685C43.5793 46.2045 43.7344 46.1098 43.8646 45.9844C43.9948 45.8565 44.0954 45.6979 44.1664 45.5085L44.9761 45.7358C44.8909 46.0104 44.7476 46.2519 44.5464 46.4602C44.3452 46.6662 44.0966 46.8272 43.8007 46.9432C43.5047 47.0568 43.1721 47.1136 42.8028 47.1136ZM49.5958 47.1136C49.1413 47.1136 48.74 46.9988 48.392 46.7692C48.044 46.5372 47.7717 46.2105 47.5753 45.7891C47.3788 45.3653 47.2805 44.8646 47.2805 44.2869C47.2805 43.714 47.3788 43.2169 47.5753 42.7955C47.7717 42.3741 48.0452 42.0485 48.3956 41.8189C48.7459 41.5893 49.1508 41.4744 49.6101 41.4744C49.9652 41.4744 50.2457 41.5336 50.4517 41.652C50.66 41.768 50.8186 41.9006 50.9275 42.0497C51.0388 42.1965 51.1252 42.3172 51.1868 42.4119H51.2578V39.7273H52.0958V47H51.2862V46.1619H51.1868C51.1252 46.2614 51.0376 46.3868 50.924 46.5384C50.8103 46.6875 50.6482 46.8213 50.4375 46.9396C50.2268 47.0556 49.9462 47.1136 49.5958 47.1136ZM49.7095 46.3608C50.0457 46.3608 50.3297 46.2732 50.5618 46.098C50.7938 45.9205 50.9701 45.6754 51.0909 45.3629C51.2116 45.0481 51.272 44.6847 51.272 44.2727C51.272 43.8655 51.2128 43.5092 51.0944 43.2038C50.9761 42.8961 50.8009 42.657 50.5689 42.4865C50.3369 42.3137 50.0504 42.2273 49.7095 42.2273C49.3544 42.2273 49.0584 42.3184 48.8217 42.5007C48.5873 42.6806 48.411 42.9257 48.2926 43.2358C48.1766 43.5436 48.1186 43.8892 48.1186 44.2727C48.1186 44.661 48.1778 45.0137 48.2961 45.331C48.4169 45.6458 48.5944 45.8968 48.8288 46.0838C49.0655 46.2685 49.3591 46.3608 49.7095 46.3608ZM59.0733 47V39.7273H59.9113V42.4119H59.9824C60.0439 42.3172 60.1291 42.1965 60.238 42.0497C60.3493 41.9006 60.5079 41.768 60.7139 41.652C60.9222 41.5336 61.2039 41.4744 61.5591 41.4744C62.0183 41.4744 62.4232 41.5893 62.7735 41.8189C63.1239 42.0485 63.3974 42.3741 63.5939 42.7955C63.7904 43.2169 63.8886 43.714 63.8886 44.2869C63.8886 44.8646 63.7904 45.3653 63.5939 45.7891C63.3974 46.2105 63.1251 46.5372 62.7771 46.7692C62.4291 46.9988 62.0278 47.1136 61.5733 47.1136C61.2229 47.1136 60.9423 47.0556 60.7316 46.9396C60.5209 46.8213 60.3588 46.6875 60.2451 46.5384C60.1315 46.3868 60.0439 46.2614 59.9824 46.1619H59.8829V47H59.0733ZM59.8971 44.2727C59.8971 44.6847 59.9575 45.0481 60.0782 45.3629C60.199 45.6754 60.3753 45.9205 60.6074 46.098C60.8394 46.2732 61.1234 46.3608 61.4596 46.3608C61.81 46.3608 62.1024 46.2685 62.3368 46.0838C62.5735 45.8968 62.7511 45.6458 62.8694 45.331C62.9902 45.0137 63.0505 44.661 63.0505 44.2727C63.0505 43.8892 62.9913 43.5436 62.873 43.2358C62.757 42.9257 62.5806 42.6806 62.3439 42.5007C62.1095 42.3184 61.8147 42.2273 61.4596 42.2273C61.1187 42.2273 60.8323 42.3137 60.6002 42.4865C60.3682 42.657 60.1931 42.8961 60.0747 43.2038C59.9563 43.5092 59.8971 43.8655 59.8971 44.2727ZM66.715 49.0455C66.573 49.0455 66.4463 49.0336 66.335 49.0099C66.2238 48.9886 66.1468 48.9673 66.1042 48.946L66.3173 48.2074C66.5209 48.2595 66.7008 48.2784 66.8571 48.2642C67.0133 48.25 67.1518 48.1802 67.2725 48.0547C67.3957 47.9316 67.5081 47.7315 67.6099 47.4545L67.7662 47.0284L65.7491 41.5455H66.6582L68.1639 45.892H68.2207L69.7264 41.5455H70.6355L68.3201 47.7955C68.216 48.0772 68.0869 48.3104 67.9331 48.495C67.7792 48.6821 67.6004 48.8205 67.3968 48.9105C67.1956 49.0005 66.9683 49.0455 66.715 49.0455ZM77.0678 47V39.7273H77.9485V42.9659H81.8263V39.7273H82.707V47H81.8263V43.7472H77.9485V47H77.0678ZM87.8434 47.1136C87.3179 47.1136 86.8645 46.9976 86.4833 46.7656C86.1046 46.5312 85.8122 46.2045 85.6062 45.7855C85.4026 45.3641 85.3008 44.8741 85.3008 44.3153C85.3008 43.7566 85.4026 43.2642 85.6062 42.8381C85.8122 42.4096 86.0986 42.0758 86.4656 41.8366C86.8349 41.5952 87.2658 41.4744 87.7582 41.4744C88.0423 41.4744 88.3228 41.5218 88.5998 41.6165C88.8768 41.7112 89.1289 41.8651 89.3562 42.0781C89.5835 42.2888 89.7646 42.5682 89.8995 42.9162C90.0345 43.2642 90.102 43.6927 90.102 44.2017V44.5568H85.8974V43.8324H89.2497C89.2497 43.5246 89.1881 43.25 89.065 43.0085C88.9443 42.767 88.7715 42.5765 88.5466 42.4368C88.324 42.2971 88.0612 42.2273 87.7582 42.2273C87.4244 42.2273 87.1356 42.3101 86.8917 42.4759C86.6502 42.6392 86.4644 42.8523 86.3342 43.1151C86.204 43.3778 86.1389 43.6596 86.1389 43.9602V44.4432C86.1389 44.8551 86.2099 45.2043 86.352 45.4908C86.4964 45.7749 86.6964 45.9915 86.9521 46.1406C87.2078 46.2874 87.5049 46.3608 87.8434 46.3608C88.0636 46.3608 88.2625 46.33 88.44 46.2685C88.6199 46.2045 88.775 46.1098 88.9052 45.9844C89.0354 45.8565 89.136 45.6979 89.2071 45.5085L90.0167 45.7358C89.9315 46.0104 89.7883 46.2519 89.587 46.4602C89.3858 46.6662 89.1372 46.8272 88.8413 46.9432C88.5454 47.0568 88.2127 47.1136 87.8434 47.1136ZM94.6365 47.1136C94.1819 47.1136 93.7806 46.9988 93.4326 46.7692C93.0846 46.5372 92.8124 46.2105 92.6159 45.7891C92.4194 45.3653 92.3211 44.8646 92.3211 44.2869C92.3211 43.714 92.4194 43.2169 92.6159 42.7955C92.8124 42.3741 93.0858 42.0485 93.4362 41.8189C93.7866 41.5893 94.1914 41.4744 94.6507 41.4744C95.0058 41.4744 95.2863 41.5336 95.4923 41.652C95.7006 41.768 95.8592 41.9006 95.9681 42.0497C96.0794 42.1965 96.1658 42.3172 96.2274 42.4119H96.2984V39.7273H97.1365V47H96.3268V46.1619H96.2274C96.1658 46.2614 96.0782 46.3868 95.9646 46.5384C95.851 46.6875 95.6888 46.8213 95.4781 46.9396C95.2674 47.0556 94.9869 47.1136 94.6365 47.1136ZM94.7501 46.3608C95.0863 46.3608 95.3704 46.2732 95.6024 46.098C95.8344 45.9205 96.0108 45.6754 96.1315 45.3629C96.2522 45.0481 96.3126 44.6847 96.3126 44.2727C96.3126 43.8655 96.2534 43.5092 96.1351 43.2038C96.0167 42.8961 95.8415 42.657 95.6095 42.4865C95.3775 42.3137 95.091 42.2273 94.7501 42.2273C94.395 42.2273 94.0991 42.3184 93.8623 42.5007C93.628 42.6806 93.4516 42.9257 93.3332 43.2358C93.2172 43.5436 93.1592 43.8892 93.1592 44.2727C93.1592 44.661 93.2184 45.0137 93.3368 45.331C93.4575 45.6458 93.6351 45.8968 93.8694 46.0838C94.1062 46.2685 94.3997 46.3608 94.7501 46.3608ZM101.224 47L99.5616 41.5455H100.442L101.621 45.7216H101.678L102.843 41.5455H103.738L104.888 45.7074H104.945L106.124 41.5455H107.005L105.343 47H104.519L103.326 42.8097H103.241L102.047 47H101.224ZM109.853 49.0455C109.71 49.0455 109.584 49.0336 109.473 49.0099C109.361 48.9886 109.284 48.9673 109.242 48.946L109.455 48.2074C109.658 48.2595 109.838 48.2784 109.995 48.2642C110.151 48.25 110.289 48.1802 110.41 48.0547C110.533 47.9316 110.646 47.7315 110.747 47.4545L110.904 47.0284L108.887 41.5455H109.796L111.301 45.892H111.358L112.864 41.5455H113.773L111.458 47.7955C111.353 48.0772 111.224 48.3104 111.071 48.495C110.917 48.6821 110.738 48.8205 110.534 48.9105C110.333 49.0005 110.106 49.0455 109.853 49.0455Z" fill="#D7ECFF" fill-opacity="0.22"/>
</svg>
