<svg width="13" height="12" viewBox="0 0 13 12" fill="none" xmlns="http://www.w3.org/2000/svg">
<path d="M9.17236 8V11H1.17236V3H5.17236V2H1.17236H0.172363V12H10.1724V8H9.17236Z" fill="#F4FAFF" fill-opacity="0.55"/>
<path d="M12.0076 0.164752C12.1131 0.270242 12.1724 0.413316 12.1724 0.5625V0H11.6099C11.759 0 11.9021 0.0592632 12.0076 0.164752Z" fill="#F4FAFF" fill-opacity="0.55"/>
<path d="M8.21142 0.960938C7.85869 0.607266 8.109 0 8.60986 0H7.69241H7.25048L7.73095 0.480469L8.21142 0.960938Z" fill="#F4FAFF" fill-opacity="0.55"/>
<path d="M12.1724 3.5625C12.1724 4.06641 11.563 4.3125 11.2114 3.96094L12.1724 4.92188V3.5625Z" fill="#F4FAFF" fill-opacity="0.55"/>
<path d="M9.21114 2.03878L3.71114 7.53878L4.71114 8.53878L10.2499 3L11.2069 3.95645L9.25021 1.99972L9.21114 2.03878Z" fill="#F4FAFF" fill-opacity="0.55"/>
<path d="M8.60986 0C8.109 0 7.85869 0.607266 8.21142 0.960938L9.04884 1.79836L9.25021 1.99972L11.2069 3.95645L11.2114 3.96094C11.563 4.3125 12.1724 4.06641 12.1724 3.5625V3.23067V0.5625C12.1724 0.413316 12.1131 0.270242 12.0076 0.164752C11.9021 0.0592632 11.759 0 11.6099 0H11.3885H8.85195H8.60986Z" fill="#F4FAFF" fill-opacity="0.55"/>
</svg>
