<svg width="613" height="132" viewBox="0 0 613 132" fill="none" xmlns="http://www.w3.org/2000/svg">
<rect x="154.828" y="4" width="115" height="151" transform="rotate(90 154.828 4)" fill="url(#paint0_linear_0_1)" fill-opacity="0.1"/>
<rect x="457.828" y="128" width="115" height="151" transform="rotate(-90 457.828 128)" fill="url(#paint1_linear_0_1)" fill-opacity="0.1"/>
<path d="M0.827633 77L0.827637 3.64618L0.827637 2" stroke="url(#paint2_linear_0_1)" stroke-opacity="0.2" stroke-linecap="square"/>
<path d="M0.827641 0.999993L80.0498 1L81.8276 1" stroke="url(#paint3_linear_0_1)" stroke-opacity="0.2" stroke-linecap="square"/>
<path d="M611.827 27.0002L611.827 128.718L611.827 131" stroke="url(#paint4_linear_0_1)" stroke-opacity="0.2" stroke-linecap="square"/>
<path d="M610.827 131L531.605 131L529.827 131" stroke="url(#paint5_linear_0_1)" stroke-opacity="0.2" stroke-linecap="square"/>
<path d="M49.1532 35.1255V67.3347H55.595V54.451H68.4787V67.3347H74.9205V35.1255H94.2461V86.6602H87.8042V99.5439H68.4787V80.2184H55.595V99.5439H36.2695V86.6602H29.8276V35.1255H49.1532Z" fill="url(#paint6_linear_0_1)"/>
<path d="M106.192 99.5439V35.1255H125.517V99.5439H106.192Z" fill="url(#paint7_linear_0_1)"/>
<path d="M156.766 73.7766V99.5439H137.441V35.1255H156.766V48.0092H163.208V60.8929H169.65V35.1255H188.976V99.5439H169.65V86.6602H163.208V73.7766H156.766Z" fill="url(#paint8_linear_0_1)"/>
<path d="M233.163 48.0092V99.5439H213.837V48.0092H200.953V35.1255H246.046V48.0092H233.163Z" fill="url(#paint9_linear_0_1)"/>
<path d="M277.321 73.7766V86.6602H303.088V99.5439H257.995V35.1255H303.088V48.0092H277.321V60.8929H296.646V73.7766H277.321Z" fill="url(#paint10_linear_0_1)"/>
<path d="M315.037 99.5439V35.1255H360.13V60.8929H353.688V67.3347H360.13V99.5439H340.805V73.7766H334.363V99.5439H315.037ZM340.805 60.8929V48.0092H334.363V60.8929H340.805Z" fill="url(#paint11_linear_0_1)"/>
<path d="M404.289 48.0092V99.5439H384.963V48.0092H372.079V35.1255H417.172V48.0092H404.289Z" fill="url(#paint12_linear_0_1)"/>
<path d="M429.121 99.5439V35.1255H474.214V99.5439H454.889V73.7766H448.447V99.5439H429.121ZM454.889 60.8929V48.0092H448.447V60.8929H454.889Z" fill="url(#paint13_linear_0_1)"/>
<path d="M486.163 99.5439V35.1255H505.489V86.6602H524.814V99.5439H486.163Z" fill="url(#paint14_linear_0_1)"/>
<path d="M556.06 73.7766V86.6602H581.828V99.5439H536.735V35.1255H581.828V48.0092H556.06V60.8929H575.386V73.7766H556.06Z" fill="url(#paint15_linear_0_1)"/>
<path d="M49.1534 26.0002V58.2095H55.5953V45.3258H68.4789V58.2095H74.9208V26.0002H94.2463V77.535H87.8045V90.4187H68.4789V71.0932H55.5953V90.4187H36.2697V77.535H29.8279V26.0002H49.1534Z" fill="url(#paint16_linear_0_1)"/>
<path d="M106.192 90.4187V26.0002H125.517V90.4187H106.192Z" fill="url(#paint17_linear_0_1)"/>
<path d="M156.767 64.6513V90.4187H137.441V26.0002H156.767V38.8839H163.209V51.7676H169.65V26.0002H188.976V90.4187H169.65V77.535H163.209V64.6513H156.767Z" fill="url(#paint18_linear_0_1)"/>
<path d="M233.163 38.8839V90.4187H213.837V38.8839H200.954V26.0002H246.047V38.8839H233.163Z" fill="url(#paint19_linear_0_1)"/>
<path d="M277.321 64.6513V77.535H303.089V90.4187H257.996V26.0002H303.089V38.8839H277.321V51.7676H296.647V64.6513H277.321Z" fill="url(#paint20_linear_0_1)"/>
<path d="M315.038 90.4187V26.0002H360.131V51.7676H353.689V58.2095H360.131V90.4187H340.805V64.6513H334.363V90.4187H315.038ZM340.805 51.7676V38.8839H334.363V51.7676H340.805Z" fill="url(#paint21_linear_0_1)"/>
<path d="M404.289 38.8839V90.4187H384.963V38.8839H372.08V26.0002H417.173V38.8839H404.289Z" fill="url(#paint22_linear_0_1)"/>
<path d="M429.122 90.4187V26.0002H474.214V90.4187H454.889V64.6513H448.447V90.4187H429.122ZM454.889 51.7676V38.8839H448.447V51.7676H454.889Z" fill="url(#paint23_linear_0_1)"/>
<path d="M486.164 90.4187V26.0002H505.489V77.535H524.815V90.4187H486.164Z" fill="url(#paint24_linear_0_1)"/>
<path d="M556.06 64.6513V77.535H581.828V90.4187H536.735V26.0002H581.828V38.8839H556.06V51.7676H575.386V64.6513H556.06Z" fill="url(#paint25_linear_0_1)"/>
<defs>
<linearGradient id="paint0_linear_0_1" x1="238.828" y1="107" x2="175.484" y2="174.41" gradientUnits="userSpaceOnUse">
<stop stop-color="#D4ECFF" stop-opacity="0"/>
<stop offset="1" stop-color="#D4ECFF"/>
</linearGradient>
<linearGradient id="paint1_linear_0_1" x1="541.828" y1="231" x2="478.484" y2="298.41" gradientUnits="userSpaceOnUse">
<stop stop-color="#D4ECFF" stop-opacity="0"/>
<stop offset="1" stop-color="#D4ECFF"/>
</linearGradient>
<linearGradient id="paint2_linear_0_1" x1="0.827638" y1="77" x2="0.827639" y2="2" gradientUnits="userSpaceOnUse">
<stop stop-color="#D2E7FB" stop-opacity="0"/>
<stop offset="1" stop-color="#D2E7FB"/>
</linearGradient>
<linearGradient id="paint3_linear_0_1" x1="0.898748" y1="0.999993" x2="81.8276" y2="1" gradientUnits="userSpaceOnUse">
<stop stop-color="#D2E7FB"/>
<stop offset="0.0001" stop-color="#D2E7FB"/>
<stop offset="1" stop-color="#D2E7FB" stop-opacity="0"/>
</linearGradient>
<linearGradient id="paint4_linear_0_1" x1="611.827" y1="27.0002" x2="611.827" y2="131" gradientUnits="userSpaceOnUse">
<stop stop-color="#D2E7FB" stop-opacity="0"/>
<stop offset="1" stop-color="#D2E7FB"/>
</linearGradient>
<linearGradient id="paint5_linear_0_1" x1="610.756" y1="131" x2="529.827" y2="131" gradientUnits="userSpaceOnUse">
<stop stop-color="#D2E7FB"/>
<stop offset="0.0001" stop-color="#D2E7FB"/>
<stop offset="1" stop-color="#D2E7FB" stop-opacity="0"/>
</linearGradient>
<linearGradient id="paint6_linear_0_1" x1="305.828" y1="35.1255" x2="305.828" y2="99.5439" gradientUnits="userSpaceOnUse">
<stop stop-color="#C2D5E7"/>
<stop offset="1" stop-color="#7F9EBA"/>
</linearGradient>
<linearGradient id="paint7_linear_0_1" x1="305.828" y1="35.1255" x2="305.828" y2="99.5439" gradientUnits="userSpaceOnUse">
<stop stop-color="#C2D5E7"/>
<stop offset="1" stop-color="#7F9EBA"/>
</linearGradient>
<linearGradient id="paint8_linear_0_1" x1="305.828" y1="35.1255" x2="305.828" y2="99.5439" gradientUnits="userSpaceOnUse">
<stop stop-color="#C2D5E7"/>
<stop offset="1" stop-color="#7F9EBA"/>
</linearGradient>
<linearGradient id="paint9_linear_0_1" x1="305.828" y1="35.1255" x2="305.828" y2="99.5439" gradientUnits="userSpaceOnUse">
<stop stop-color="#C2D5E7"/>
<stop offset="1" stop-color="#7F9EBA"/>
</linearGradient>
<linearGradient id="paint10_linear_0_1" x1="305.828" y1="35.1255" x2="305.828" y2="99.5439" gradientUnits="userSpaceOnUse">
<stop stop-color="#C2D5E7"/>
<stop offset="1" stop-color="#7F9EBA"/>
</linearGradient>
<linearGradient id="paint11_linear_0_1" x1="305.828" y1="35.1255" x2="305.828" y2="99.5439" gradientUnits="userSpaceOnUse">
<stop stop-color="#C2D5E7"/>
<stop offset="1" stop-color="#7F9EBA"/>
</linearGradient>
<linearGradient id="paint12_linear_0_1" x1="305.828" y1="35.1255" x2="305.828" y2="99.5439" gradientUnits="userSpaceOnUse">
<stop stop-color="#C2D5E7"/>
<stop offset="1" stop-color="#7F9EBA"/>
</linearGradient>
<linearGradient id="paint13_linear_0_1" x1="305.828" y1="35.1255" x2="305.828" y2="99.5439" gradientUnits="userSpaceOnUse">
<stop stop-color="#C2D5E7"/>
<stop offset="1" stop-color="#7F9EBA"/>
</linearGradient>
<linearGradient id="paint14_linear_0_1" x1="305.828" y1="35.1255" x2="305.828" y2="99.5439" gradientUnits="userSpaceOnUse">
<stop stop-color="#C2D5E7"/>
<stop offset="1" stop-color="#7F9EBA"/>
</linearGradient>
<linearGradient id="paint15_linear_0_1" x1="305.828" y1="35.1255" x2="305.828" y2="99.5439" gradientUnits="userSpaceOnUse">
<stop stop-color="#C2D5E7"/>
<stop offset="1" stop-color="#7F9EBA"/>
</linearGradient>
<linearGradient id="paint16_linear_0_1" x1="306.65" y1="21.3337" x2="306.78" y2="102.162" gradientUnits="userSpaceOnUse">
<stop stop-color="white"/>
<stop offset="1" stop-color="#D2E7FB"/>
</linearGradient>
<linearGradient id="paint17_linear_0_1" x1="306.65" y1="21.3337" x2="306.78" y2="102.162" gradientUnits="userSpaceOnUse">
<stop stop-color="white"/>
<stop offset="1" stop-color="#D2E7FB"/>
</linearGradient>
<linearGradient id="paint18_linear_0_1" x1="306.65" y1="21.3337" x2="306.78" y2="102.162" gradientUnits="userSpaceOnUse">
<stop stop-color="white"/>
<stop offset="1" stop-color="#D2E7FB"/>
</linearGradient>
<linearGradient id="paint19_linear_0_1" x1="306.65" y1="21.3337" x2="306.78" y2="102.162" gradientUnits="userSpaceOnUse">
<stop stop-color="white"/>
<stop offset="1" stop-color="#D2E7FB"/>
</linearGradient>
<linearGradient id="paint20_linear_0_1" x1="306.65" y1="21.3337" x2="306.78" y2="102.162" gradientUnits="userSpaceOnUse">
<stop stop-color="white"/>
<stop offset="1" stop-color="#D2E7FB"/>
</linearGradient>
<linearGradient id="paint21_linear_0_1" x1="306.65" y1="21.3337" x2="306.78" y2="102.162" gradientUnits="userSpaceOnUse">
<stop stop-color="white"/>
<stop offset="1" stop-color="#D2E7FB"/>
</linearGradient>
<linearGradient id="paint22_linear_0_1" x1="306.65" y1="21.3337" x2="306.78" y2="102.162" gradientUnits="userSpaceOnUse">
<stop stop-color="white"/>
<stop offset="1" stop-color="#D2E7FB"/>
</linearGradient>
<linearGradient id="paint23_linear_0_1" x1="306.65" y1="21.3337" x2="306.78" y2="102.162" gradientUnits="userSpaceOnUse">
<stop stop-color="white"/>
<stop offset="1" stop-color="#D2E7FB"/>
</linearGradient>
<linearGradient id="paint24_linear_0_1" x1="306.65" y1="21.3337" x2="306.78" y2="102.162" gradientUnits="userSpaceOnUse">
<stop stop-color="white"/>
<stop offset="1" stop-color="#D2E7FB"/>
</linearGradient>
<linearGradient id="paint25_linear_0_1" x1="306.65" y1="21.3337" x2="306.78" y2="102.162" gradientUnits="userSpaceOnUse">
<stop stop-color="white"/>
<stop offset="1" stop-color="#D2E7FB"/>
</linearGradient>
</defs>
</svg>
